<svg xmlns="http://www.w3.org/2000/svg" viewBox="0 0 111.59 87.78"><defs><style>.cls-1{opacity:0.17;}.cls-2{fill:#29332c;}</style></defs><g id="Calque_2" data-name="Calque 2"><g id="Calque_1-2" data-name="Calque 1"><polygon class="cls-1" points="100.36 31.52 92.47 31.52 93.01 27.95 100.81 28.22 102.93 12.75 111.59 8.98 64.94 4.54 73.94 10.59 78.94 64.51 50.39 2.37 3.75 8.98 17.19 14.42 15.96 33.22 24.46 33.62 27.71 34.89 15.85 34.89 14.53 55.11 23.51 56.45 23.51 59.41 14.25 59.41 13.19 75.61 3.75 82 65.72 87.78 51.06 79.72 43.14 50 29.12 50 29.65 46.43 42.3 46.87 37.18 27.64 64.72 66.8 65.41 66.62 82.67 67.44 85.92 68.71 66.06 68.71 77.55 85.06 106.59 82.78 94.04 77.78 100.36 31.52"/><polygon class="cls-2" points="96.61 29.15 88.72 29.15 89.26 25.58 97.06 25.85 99.18 10.38 107.84 6.61 61.2 2.17 70.19 8.22 75.19 62.14 46.65 0 0 6.61 13.44 12.05 12.21 30.85 20.72 31.25 23.96 32.52 12.1 32.52 10.78 52.74 19.77 54.08 19.77 57.04 10.5 57.04 9.44 73.25 0 79.63 61.97 85.41 47.31 77.36 39.39 47.63 25.37 47.63 25.91 44.06 38.56 44.5 33.43 25.27 60.97 64.43 61.66 64.25 78.92 65.07 82.17 66.34 62.31 66.34 73.8 82.69 102.84 80.41 90.29 75.41 96.61 29.15"/></g></g></svg>