<svg xmlns="http://www.w3.org/2000/svg" viewBox="0 0 62.42 47.43"><defs><style>.cls-1{fill:#d3986c;}.cls-2{fill:#b5805d;}.cls-3{fill:#ffbb69;}.cls-4{fill:#b0b5ca;}.cls-5{fill:#6d7486;}.cls-6{fill:#c18a61;}.cls-7{fill:#a75;}.cls-8{fill:#b38349;opacity:0.47;}.cls-9{fill:#334037;}</style></defs><g id="Calque_2" data-name="Calque 2"><g id="Calque_1-2" data-name="Calque 1"><path class="cls-1" d="M35.34,36.55a9.42,9.42,0,0,1-2.61,6.33l-.37.36a11.07,11.07,0,0,1-3.25,2A17.41,17.41,0,0,1,25,46.37a31,31,0,0,1-7.72.14,36.28,36.28,0,0,1-11.43-3C-2.21,39.64,4,32.91,4,32.91.45,31.6,0,28.49,1.7,26.49a2.92,2.92,0,0,1,.79-.65,4.54,4.54,0,0,1,2.19-.5,12.55,12.55,0,0,1,3.5.54,27,27,0,0,1,3.37,1.19,47.09,47.09,0,0,1,5.63,2.84c.36.21.72.41,1.09.58a12,12,0,0,0,3.15,1C24.59,32,27.29,31,27.88,29a4.17,4.17,0,0,0,.61,0h.25c3.4.92,6.83,3.45,6.6,7.53Z"/><path class="cls-2" d="M32.73,42.88a9.42,9.42,0,0,0,2.61-6.33H53.17a24.21,24.21,0,0,0,.93,4.28,1.84,1.84,0,0,1-1.19,2.32,1.88,1.88,0,0,1-.57.09h-20Z"/><path class="cls-3" d="M53.1,28.48A20.33,20.33,0,0,0,53,23.31c-1-6.49-5.27-8.57-5.27-8.57h0c-3.33,1.71-9.87-3.35-6.59-9.26-14.77-8.2-24,5.67-28.57,9.2A17.52,17.52,0,0,1,4,17.77a3.06,3.06,0,0,0-2.7,3.38c0,.1,0,.19,0,.28a3.57,3.57,0,0,0,.52,1.28s-.75,2,.6,3.13a4.54,4.54,0,0,1,2.19-.5,12.55,12.55,0,0,1,3.5.54,27,27,0,0,1,3.37,1.19,47.09,47.09,0,0,1,5.63,2.84c.36.21.72.41,1.09.58a12,12,0,0,0,3.15,1C24.59,32,27.29,31,27.88,29l.86,0h0c3.4.92,6.83,3.45,6.6,7.53H53.17a34.58,34.58,0,0,1-.07-8.07Z"/><path class="cls-1" d="M41.15,5.47l.18-.31a10,10,0,0,1,1.1-1.48,8.73,8.73,0,0,1,2.22-1.8,8.9,8.9,0,0,1,5-1.11,12,12,0,0,1,4.87,1.41,13.83,13.83,0,0,1,3.82,3A13,13,0,0,1,61,9.53a12,12,0,0,1,.62,5.22,13.53,13.53,0,0,1-.28,1.67,10.15,10.15,0,0,1-2,3.86,8,8,0,0,1-6.28,3h0c-1-6.49-5.27-8.57-5.27-8.57h0C44.41,16.44,37.87,11.38,41.15,5.47Z"/><path class="cls-1" d="M39,19q.21.57.39,1.2a2.13,2.13,0,0,1-1.18,2.51l-4.22,1.92A5.58,5.58,0,0,0,25.13,19l-.62-3.69a2.13,2.13,0,0,1,1.64-2.44,16.87,16.87,0,0,1,1.73-.29,13,13,0,0,1,4.36.19,8.77,8.77,0,0,1,4.45,2.5A10.75,10.75,0,0,1,39,19Z"/><path class="cls-4" d="M34.07,23.45A5.57,5.57,0,0,1,28.74,29h-.25a5.58,5.58,0,0,1-3.36-10h0a5.59,5.59,0,0,1,8.94,4.45Z"/><path class="cls-5" d="M28.52,21.4a2,2,0,1,1-2,2A2,2,0,0,1,28.52,21.4Z"/><path class="cls-6" d="M11.15,24.5a.82.82,0,1,1,.82-.82.82.82,0,0,1-.82.82ZM14,18.66a.82.82,0,1,1,.81-.82A.81.81,0,0,1,14,18.66Zm4,2.74a.82.82,0,1,1,.82.82A.82.82,0,0,1,18.08,21.4Zm1.64,6.77a.82.82,0,0,1-.82-.82.82.82,0,1,1,.82.82Zm0-13.23a.82.82,0,1,1,.82-.82.82.82,0,0,1-.82.82Zm3.93-5.41a.82.82,0,1,1-.82.82A.82.82,0,0,1,23.65,9.53Zm4.84-1a.82.82,0,1,1,.82-.81A.82.82,0,0,1,28.49,8.51Zm6.4-.61a.82.82,0,1,1-.82.82.82.82,0,0,1,.82-.82Zm2.42,21.87a.82.82,0,1,1,.82-.82h0A.82.82,0,0,1,37.31,29.77ZM40.83,17a.82.82,0,1,1,.82.81h0a.81.81,0,0,1-.81-.81Zm2,16.76A.81.81,0,0,1,42,33a.82.82,0,1,1,1.63,0,.81.81,0,0,1-.81.81ZM43,25.47a.82.82,0,1,1,.82-.82.82.82,0,0,1-.82.82Zm4.07-6a.82.82,0,1,1,1.63,0,.81.81,0,0,1-.81.82h0A.82.82,0,0,1,47,19.5Zm2,13.86a.82.82,0,1,1,.82-.82.82.82,0,0,1-.82.82Zm.41-6.82a.82.82,0,1,1,.82-.82A.82.82,0,0,1,49.49,26.54Z"/><path class="cls-4" d="M13.7,41.59a.29.29,0,0,1-.14.37.28.28,0,0,1-.2,0c-5.52-1.68-5.17-8.42-5.17-8.42h0A12.42,12.42,0,0,1,13,34.67a11.84,11.84,0,0,0,.75,6.92Z"/><path class="cls-7" d="M21.05,46.51a36.28,36.28,0,0,1-11.43-3c-8.1-3.91-1.94-10.64-1.94-10.64-3.5-1.31-3.94-4.42-2.25-6.42a2.92,2.92,0,0,1,.79-.65,4.11,4.11,0,0,1,.65-.28,10.71,10.71,0,0,0-2.19-.22,4.54,4.54,0,0,0-2.19.5,2.92,2.92,0,0,0-.79.65C0,28.49.45,31.6,4,32.91c0,0-6.16,6.73,1.94,10.64a36.28,36.28,0,0,0,11.43,3,34,34,0,0,0,5.34.12C22.12,46.6,21.59,46.56,21.05,46.51Z"/><path class="cls-8" d="M5.62,22.71a3.57,3.57,0,0,1-.52-1.28,3.07,3.07,0,0,1,2.39-3.62l.27,0a17.52,17.52,0,0,0,8.55-3.1C19.61,12.1,25.4,4.08,34,3,23.32,1.75,16.34,11.75,12.58,14.67A17.52,17.52,0,0,1,4,17.77a3.06,3.06,0,0,0-2.7,3.38c0,.1,0,.19,0,.28a3.57,3.57,0,0,0,.52,1.28s-.75,2,.6,3.13a4.54,4.54,0,0,1,2.19-.5,10.88,10.88,0,0,1,1.14.06,3.27,3.27,0,0,1-.2-2.69Z"/><path class="cls-9" d="M28.52,26.21a2.78,2.78,0,1,0-2.78-2.78A2.77,2.77,0,0,0,28.52,26.21Zm0-4.06a1.29,1.29,0,0,1,0,2.57,1.29,1.29,0,1,1,0-2.57Z"/><path class="cls-9" d="M14,19.41a1.57,1.57,0,1,0-1.57-1.57A1.56,1.56,0,0,0,14,19.41Zm0-1.64a.08.08,0,0,1,.07.08.08.08,0,1,1-.15,0,.08.08,0,0,1,.08-.07Z"/><path class="cls-9" d="M19.72,15.68a1.57,1.57,0,1,0-1.57-1.56A1.56,1.56,0,0,0,19.72,15.68Zm0-1.63a.07.07,0,1,1-.07.07A.07.07,0,0,1,19.72,14.05Z"/><path class="cls-9" d="M18.9,23a1.57,1.57,0,1,0-1.56-1.57A1.56,1.56,0,0,0,18.9,23Zm0-1.64a.07.07,0,0,1,.07.07.08.08,0,0,1-.07.08.08.08,0,0,1-.07-.08A.07.07,0,0,1,18.9,21.33Z"/><path class="cls-9" d="M19.72,25.79a1.57,1.57,0,1,0,1.56,1.56A1.55,1.55,0,0,0,19.72,25.79Zm0,1.64a.08.08,0,0,1-.07-.08.07.07,0,0,1,.14,0A.08.08,0,0,1,19.72,27.43Z"/><path class="cls-9" d="M11.15,25.25a1.57,1.57,0,1,0-1.57-1.57A1.56,1.56,0,0,0,11.15,25.25Zm0-1.64a.08.08,0,0,1,.07.08.08.08,0,0,1-.07.07.08.08,0,0,1-.07-.08A.07.07,0,0,1,11.15,23.61Z"/><path class="cls-9" d="M23.65,11.92a1.57,1.57,0,1,0-1.56-1.57A1.57,1.57,0,0,0,23.65,11.92Zm0-1.64a.07.07,0,1,1-.07.07.07.07,0,0,1,.07-.07Z"/><path class="cls-9" d="M28.49,9.26A1.57,1.57,0,1,0,26.93,7.7,1.56,1.56,0,0,0,28.49,9.26Zm0-1.64a.08.08,0,0,1,.07.08.07.07,0,0,1-.07.07.08.08,0,0,1-.07-.07A.08.08,0,0,1,28.49,7.62Z"/><path class="cls-9" d="M34.89,10.28a1.57,1.57,0,1,0-1.57-1.56A1.56,1.56,0,0,0,34.89,10.28Zm0-1.64a.08.08,0,0,1,.07.08.07.07,0,0,1-.14,0A.08.08,0,0,1,34.89,8.64Z"/><path class="cls-9" d="M41.65,18.59A1.57,1.57,0,1,0,40.08,17,1.56,1.56,0,0,0,41.65,18.59Zm0-1.64a.09.09,0,0,1,.07.08.08.08,0,0,1-.08.07.07.07,0,0,1-.07-.07.09.09,0,0,1,.08-.08Z"/><path class="cls-9" d="M47.86,21.06a1.56,1.56,0,1,0-1.57-1.56A1.56,1.56,0,0,0,47.86,21.06Zm0-1.63a.07.07,0,0,1,.07.07.08.08,0,0,1-.07.07.07.07,0,1,1,0-.14Z"/><path class="cls-9" d="M41.4,24.65A1.57,1.57,0,1,0,43,23.08h0A1.57,1.57,0,0,0,41.4,24.65Zm1.64,0a.07.07,0,0,1-.07.07.07.07,0,1,1,0-.14h0A.07.07,0,0,1,43,24.65Z"/><path class="cls-9" d="M47.93,25.72a1.57,1.57,0,1,0,1.56-1.57h0A1.56,1.56,0,0,0,47.93,25.72Zm1.56-.07s.08,0,.07.07a.07.07,0,1,1-.07-.07Z"/><path class="cls-9" d="M42.78,31.41A1.57,1.57,0,1,0,44.35,33,1.56,1.56,0,0,0,42.78,31.41Zm0,1.64a.08.08,0,0,1-.07-.07.09.09,0,0,1,.08-.08.08.08,0,0,1,.07.08.07.07,0,0,1-.07.07Z"/><path class="cls-9" d="M37.31,27.39A1.57,1.57,0,1,0,38.88,29,1.56,1.56,0,0,0,37.31,27.39Zm0,1.63a.07.07,0,1,1,.07-.07A.07.07,0,0,1,37.31,29Z"/><path class="cls-9" d="M49.08,31a1.57,1.57,0,1,0,1.56,1.56A1.57,1.57,0,0,0,49.08,31Zm0,1.64a.08.08,0,0,1-.07-.08.07.07,0,1,1,.14,0,.08.08,0,0,1-.07.08Z"/><path class="cls-9" d="M61.7,9.31l0-.07a12.51,12.51,0,0,0-.77-1.76,14,14,0,0,0-2-2.8l0,0h0a14.53,14.53,0,0,0-4.07-3.16A12.2,12.2,0,0,0,48.06.05a9.34,9.34,0,0,0-3.74,1.16l0,0-.05,0a9.29,9.29,0,0,0-2.35,1.93,9.66,9.66,0,0,0-1,1.29c-5.32-2.76-10.56-3-15.61-.83-4.41,1.94-7.91,5.4-10.46,7.93-1.05,1-2,1.92-2.69,2.5A16.62,16.62,0,0,1,4,17,3.82,3.82,0,0,0,.59,21.24c0,.11,0,.23.05.34a4.88,4.88,0,0,0,.44,1.23,3.86,3.86,0,0,0,.32,2.91,2.44,2.44,0,0,0-.27.29,4.48,4.48,0,0,0-.75,4.76,5.18,5.18,0,0,0,2.4,2.43c-.85,1.18-2.2,3.53-1.72,6,.4,2.06,1.91,3.73,4.51,5a37.13,37.13,0,0,0,11.66,3h0l.6.06q1.61.12,3,.12A22.07,22.07,0,0,0,29.37,46l.05,0a13.4,13.4,0,0,0,1.61-.8A11.48,11.48,0,0,0,32.64,44h19.7a2.61,2.61,0,0,0,2.6-2.59,2.75,2.75,0,0,0-.13-.81,29.54,29.54,0,0,1-1-12,21.63,21.63,0,0,0,0-4.55,8.39,8.39,0,0,0,1.22-.2l.12,0h0a8.86,8.86,0,0,0,4.3-2.62c.12-.12.23-.25.34-.38h0l0,0a10.66,10.66,0,0,0,2.16-4.14,13.21,13.21,0,0,0,.3-1.76v0a12.69,12.69,0,0,0-.64-5.47v0ZM2.49,19.46a2.3,2.3,0,0,1,1.62-.95A18.17,18.17,0,0,0,13,15.26a33.62,33.62,0,0,0,2.83-2.62c2.47-2.45,5.85-5.8,10-7.62,4.67-2,9.35-1.79,14.28.77a6.84,6.84,0,0,0-.1,5.57,7.32,7.32,0,0,0,6,4.45,4.12,4.12,0,0,0,1.6-.24,9.25,9.25,0,0,1,2.58,2.56c1.79,2.61,2.51,6.16,2.08,10.27a36,36,0,0,0,0,7.41H36.09a7.14,7.14,0,0,0-2.16-4.74,10.44,10.44,0,0,0-2.73-1.92,6.33,6.33,0,0,0,3.37-4l3.9-1.77A2.89,2.89,0,0,0,40.06,20c-1.44-5.1-4.51-7.19-7.55-7.92l-.08,0-.13,0a14.09,14.09,0,0,0-4.44-.2l-.14,0a16.87,16.87,0,0,0-1.73.29,2.88,2.88,0,0,0-2.22,3.3l.56,3.26a6.31,6.31,0,0,0,2.43,10.82,3.25,3.25,0,0,1-1.35.93,5.27,5.27,0,0,1-1,.29l-.12,0a8.31,8.31,0,0,1-2.68,0l-.08,0h0a11.52,11.52,0,0,1-3.93-1.46c-.51-.3-1.32-.77-2.32-1.29l-.07,0a38.65,38.65,0,0,0-6.26-2.64l-.54-.15h0a13.65,13.65,0,0,0-3.66-.56h0a6.1,6.1,0,0,0-2,.34,1.7,1.7,0,0,1-.24-.79l.13.06a3.25,3.25,0,0,0,1.27.23c1.45,0,3.3-.76,5.6-2.3a.73.73,0,0,0,.21-1,.74.74,0,0,0-1-.21c-1.45,1-4.08,2.5-5.49,1.92a1.94,1.94,0,0,1-1-1.54A2.29,2.29,0,0,1,2.49,19.46Zm25.39-4a.74.74,0,0,0,.74-.74V13.26a12.3,12.3,0,0,1,2.71.09L30.91,15a.74.74,0,0,0,1.44.38h0l.42-1.66a7.84,7.84,0,0,1,2.78,1.54l-1.32,1.11a.75.75,0,0,0,1,1.14l1.41-1.18A10.05,10.05,0,0,1,38,18.58l-1.47.58a.74.74,0,0,0-.43,1,.75.75,0,0,0,1,.43h0L38.5,20l.12.42A1.38,1.38,0,0,1,37.86,22l-3,1.39a6.32,6.32,0,0,0-6.35-6.29,6.42,6.42,0,0,0-2.78.66l-.44-2.6a1.4,1.4,0,0,1,1.07-1.59l.82-.16v1.3a.74.74,0,0,0,.75.74Zm.61,3.14a4.83,4.83,0,1,1-4.83,4.83,4.83,4.83,0,0,1,4.83-4.83Zm4.23,23.14-1.09-1.18a.75.75,0,0,0-1.06,0,.75.75,0,0,0,0,1.06l1.15,1.25a9.3,9.3,0,0,1-1.41,1c-.22.13-.45.26-.68.37l-.48-1.67a.74.74,0,0,0-.92-.52.74.74,0,0,0-.51.92h0l.52,1.86a16.56,16.56,0,0,1-2.48.68l-.13-1.6A.75.75,0,0,0,24.1,44l.14,1.71c-.77.1-1.56.16-2.37.19l-.11-2a.75.75,0,0,0-1.49.1l.11,1.86c-.77,0-1.54,0-2.31-.11V44a.76.76,0,0,0-.75-.75.75.75,0,0,0-.74.75v1.65A34.55,34.55,0,0,1,6.22,42.88c-2.15-1-3.39-2.35-3.69-3.91-.42-2.17,1-4.35,1.67-5.19a12,12,0,0,0,3.25.49A12.44,12.44,0,0,0,8,37.36a7.68,7.68,0,0,0,5.15,5.32A1,1,0,0,0,14.42,42a1,1,0,0,0,0-.72,11,11,0,0,1-.85-5.45,5.4,5.4,0,0,1,1.86,1.84.74.74,0,0,0,1,.35.75.75,0,0,0,.35-1c-.08-.17-2.06-4.1-9.15-4.24-3-.06-5.11-1-5.84-2.62A3,3,0,0,1,2.27,27a2.46,2.46,0,0,1,1.49-.79L3.49,27.6A.74.74,0,0,0,5,27.88l.34-1.77a12.14,12.14,0,0,1,2,.32L6.87,28.2a.75.75,0,0,0,.55.9h0l.17,0a.76.76,0,0,0,.73-.58l.4-1.71c.61.19,1.24.41,1.88.66L10.05,29a.74.74,0,1,0,1.39.53v0L12,28.07c.65.28,1.3.59,2,.92l-.61,1.67a.75.75,0,0,0,.45,1,.74.74,0,0,0,1-.45h0l.53-1.48c.52.28,1,.57,1.53.86l.55.31-.47,1.38a.73.73,0,0,0,.44.95.74.74,0,0,0,1-.44v0l.42-1.24a11.34,11.34,0,0,0,1.88.58l-.15,1.13a.75.75,0,0,0,.64.84h.1a.75.75,0,0,0,.74-.65l.14-1.09a9.55,9.55,0,0,0,1.69,0l0,1.31a.76.76,0,0,0,.75.72h0a.73.73,0,0,0,.72-.77l0-1.5q.36-.11.72-.24a4.4,4.4,0,0,0,2.41-2.08h.26c4.6,1.27,6.1,4.32,6,6.75a10,10,0,0,1-.29,2L33,38a.74.74,0,1,0-.58,1.37h0l1.39.57a7.8,7.8,0,0,1-1.12,1.86Zm-20.1-.88A6.24,6.24,0,0,1,9.43,37,10.39,10.39,0,0,1,9,34.36a12.24,12.24,0,0,1,3.16.75,12.82,12.82,0,0,0,.51,5.77ZM53.24,42a1.12,1.12,0,0,1-.9.46H34.05a10.22,10.22,0,0,0,2-5.2h16.5a23.25,23.25,0,0,0,.86,3.76,1.1,1.1,0,0,1-.15,1Zm7.67-28H59.15a.76.76,0,0,0-.75.75.75.75,0,0,0,.75.74h1.6c0,.26-.09.51-.15.76a9.26,9.26,0,0,1-1.42,2.94l-1.2-1a.74.74,0,0,0-1,.08A.75.75,0,0,0,57,19.29l1.21,1.05a7.43,7.43,0,0,1-2.75,1.8l-.38-1.24a.75.75,0,1,0-1.43.42v0L54,22.49l-.38,0a13.74,13.74,0,0,0-2.19-5.32A10.93,10.93,0,0,0,49,14.68a4.09,4.09,0,0,0,.64-.9c.94-1.84.89-3.6-.13-4.84A3.53,3.53,0,0,0,46,7.73a2.27,2.27,0,0,0-1.68,1.95.75.75,0,0,0,.67.82.74.74,0,0,0,.81-.63.8.8,0,0,1,.61-.71,2.08,2.08,0,0,1,2,.73c.64.77.62,1.91,0,3.21a2.22,2.22,0,0,1-2.19,1.22,5.84,5.84,0,0,1-4.72-3.54,5.33,5.33,0,0,1,.13-4.45l.75.65a.74.74,0,1,0,1-1.12v0l-1-.82A10.72,10.72,0,0,1,43,4.18a8.23,8.23,0,0,1,1.39-1.25l.87,1.53a.75.75,0,0,0,1.3-.73l-.87-1.54a8.16,8.16,0,0,1,2.52-.66l.73,0v1.9a.75.75,0,1,0,1.49,0V1.59a11.07,11.07,0,0,1,3.07.91l-1,1.64a.74.74,0,0,0,1.28.76h0l1-1.71a12.9,12.9,0,0,1,2.48,1.93L56,6.32a.76.76,0,0,0-.05,1.06.74.74,0,0,0,1.05,0l1.33-1.2a12.2,12.2,0,0,1,1.29,1.95c.15.29.29.58.42.88l-1.66.51A.75.75,0,0,0,58.78,11h0l1.72-.53A11.38,11.38,0,0,1,60.91,14Z"/></g></g></svg>