<svg xmlns="http://www.w3.org/2000/svg" viewBox="0 0 339.55 174.78"><defs><style>.cls-1,.cls-11,.cls-4,.cls-5,.cls-9{fill:#2b490a;}.cls-1,.cls-10,.cls-11,.cls-3,.cls-5,.cls-9{opacity:0.63;}.cls-14,.cls-2,.cls-8{fill:#ffdf5e;}.cls-5,.cls-8{font-size:20px;letter-spacing:0.07em;}.cls-11,.cls-14,.cls-5,.cls-8{font-family:SnapITC-Regular, Snap ITC;}.cls-6{letter-spacing:0.06em;}.cls-7{letter-spacing:0.07em;}.cls-10,.cls-9{stroke:#ffdf5e;}.cls-10,.cls-13,.cls-9{stroke-miterlimit:10;}.cls-10,.cls-13{fill:none;}.cls-11,.cls-14{font-size:16px;letter-spacing:0.07em;}.cls-12{letter-spacing:0.07em;}.cls-13{stroke:#ffdf5e;}</style></defs><g id="Calque_2" data-name="Calque 2"><g id="Calque_1-2" data-name="Calque 1"><path class="cls-1" d="M179.1,115.61l-5-9.22a61.69,61.69,0,0,1-14.77,6.94,51.53,51.53,0,0,1-15.27,2.28q-15.39,0-24.63-7.63t-9.25-20.25a33.6,33.6,0,0,1,2.53-12.85,32.21,32.21,0,0,1,7.14-10.8,29.55,29.55,0,0,1,10.3-6.72,35.26,35.26,0,0,1,12.91-2.28q13.49,0,22.27,5.83t8.77,14.66q0,8.9-8.08,14.89t-20.24,6a31.05,31.05,0,0,1-5.61-.47,25.88,25.88,0,0,1-5-1.42,42.44,42.44,0,0,0,10.25,5.25,32.17,32.17,0,0,0,10.35,1.7,25.12,25.12,0,0,0,11.94-2.89A26.74,26.74,0,0,0,177,90.23ZM128.87,76.83a9.72,9.72,0,0,0,3.07,1.65,11.26,11.26,0,0,0,3.59.59,7.42,7.42,0,0,0,5.26-1.88,6.24,6.24,0,0,0,2.05-4.81,7.72,7.72,0,0,0-.41-2.58,7.25,7.25,0,0,0-1.27-2.16,16.22,16.22,0,0,0-7.45,3A15.52,15.52,0,0,0,128.87,76.83Z"/><path class="cls-2" d="M176.76,114.77l-5-9.22A62.08,62.08,0,0,1,157,112.49a51.53,51.53,0,0,1-15.27,2.28q-15.39,0-24.63-7.64t-9.25-20.24A33.56,33.56,0,0,1,110.37,74a32.48,32.48,0,0,1,7.13-10.81,29.47,29.47,0,0,1,10.3-6.71,35.35,35.35,0,0,1,12.92-2.28q13.49,0,22.26,5.83t8.78,14.66q0,8.88-8.08,14.88t-20.24,6a32,32,0,0,1-5.61-.47,26.61,26.61,0,0,1-5-1.42A42.26,42.26,0,0,0,143.08,99a32.12,32.12,0,0,0,10.35,1.69,25,25,0,0,0,11.94-2.89,26.71,26.71,0,0,0,9.33-8.38ZM126.53,76a9.79,9.79,0,0,0,3.06,1.66,11.32,11.32,0,0,0,3.6.59,7.47,7.47,0,0,0,5.26-1.88,6.26,6.26,0,0,0,2-4.82,7.66,7.66,0,0,0-.4-2.57,7.25,7.25,0,0,0-1.27-2.16,16.11,16.11,0,0,0-7.45,3A15.4,15.4,0,0,0,126.53,76Z"/><polygon class="cls-1" points="100.36 70.95 92.47 70.95 93.01 67.38 100.81 67.65 102.93 52.18 111.59 48.41 64.94 43.97 73.94 50.02 78.94 103.94 50.39 41.8 3.75 48.41 17.19 53.85 15.96 72.64 24.46 73.05 27.71 74.32 15.85 74.32 14.53 94.54 23.51 95.88 23.51 98.83 14.25 98.83 13.19 115.05 3.75 121.43 65.72 127.21 51.06 119.15 43.14 89.44 29.12 89.44 29.65 85.86 42.3 86.3 37.18 67.07 64.72 106.23 65.41 106.05 82.67 106.87 85.92 108.14 66.06 108.14 77.55 124.48 106.59 122.21 94.04 117.21 100.36 70.95"/><polygon class="cls-2" points="96.61 68.58 88.72 68.58 89.26 65.01 97.06 65.28 99.18 49.81 107.84 46.04 61.2 41.6 70.19 47.65 75.19 101.57 46.65 39.43 0 46.04 13.44 51.48 12.21 70.28 20.72 70.68 23.96 71.96 12.1 71.96 10.78 92.17 19.77 93.51 19.77 96.47 10.5 96.47 9.44 112.68 0 119.06 61.97 124.84 47.31 116.78 39.39 87.07 25.37 87.07 25.91 83.49 38.56 83.93 33.43 64.7 60.97 103.86 61.66 103.68 78.92 104.5 82.17 105.78 62.31 105.78 73.8 122.12 102.84 119.84 90.29 114.84 96.61 68.58"/><polygon class="cls-1" points="221.14 101.01 208.8 101.01 214.28 98.32 221.57 97.73 230.12 31.62 186.52 43.9 198.02 45.95 198.38 68.89 210.41 68.47 213.04 71.94 198.43 71.94 199.02 109.76 186.3 117.03 232.5 114.75 219.95 110.2 221.14 101.01"/><polygon class="cls-2" points="218.48 99.59 206.13 99.59 211.62 96.91 218.9 96.31 227.45 30.2 183.86 42.48 195.35 44.53 195.71 67.47 207.74 67.05 210.38 70.52 195.76 70.52 196.35 108.34 183.64 115.61 229.84 113.33 217.29 108.78 218.48 99.59"/><polygon class="cls-1" points="266.52 82.76 252.61 82.87 254.97 79.98 266.93 79.56 272.85 33.8 229.26 46.08 240.75 48.13 241.66 106.11 250.45 107.26 256.69 108.53 241.7 108.42 241.75 111.94 229.03 119.21 275.24 116.94 262.69 112.38 266.52 82.76"/><polygon class="cls-2" points="264.05 81.53 250.14 81.63 252.5 78.75 264.46 78.33 270.38 32.57 226.78 44.84 238.28 46.9 239.19 104.88 247.98 106.03 254.22 107.3 239.22 107.18 239.28 110.7 226.56 117.98 272.76 115.7 260.21 111.15 264.05 81.53"/><g class="cls-3"><path class="cls-4" d="M339.55,117.82,282,119.59l12.38-5,3.89-47.31-15.16-6,55.42-2.05-17.77,6.28,6.94,48.64Z"/><path class="cls-4" d="M326.11,29.48,319.43,54a36.6,36.6,0,0,0-3.57-.91l5.37-33.71a27,27,0,0,0,.28-2.95A12,12,0,0,1,326.11,29.48ZM308.85,1.61a18.53,18.53,0,0,1,6,16.71l-5.42,34h-1.18l-5.42-34A18.48,18.48,0,0,1,308.85,1.61ZM296.18,16.39a24.75,24.75,0,0,0,.29,2.95l5.37,33.71a36.79,36.79,0,0,0-3.58.91l-6.67-24.48A12,12,0,0,1,296.18,16.39Z"/></g><path class="cls-2" d="M336.28,116.2,278.75,118l12.38-5L295,65.67l-15.16-6,55.42-2.05-17.77,6.27,6.94,48.65Z"/><path class="cls-2" d="M322.84,27.87l-6.68,24.48a33.33,33.33,0,0,0-3.57-.91L318,17.72a24.36,24.36,0,0,0,.28-2.94A12,12,0,0,1,322.84,27.87ZM305.58,0a18.53,18.53,0,0,1,6,16.71l-5.42,34H305l-5.42-34A18.53,18.53,0,0,1,305.58,0ZM292.92,14.78a24.36,24.36,0,0,0,.28,2.94l5.37,33.72a33.33,33.33,0,0,0-3.57.91l-6.68-24.48A12,12,0,0,1,292.92,14.78Z"/><text class="cls-5" transform="translate(48.83 169.34)">Le sec<tspan class="cls-6" x="80.58" y="0">r</tspan><tspan class="cls-7" x="93.56" y="0">e</tspan><tspan x="107.56" y="0">t des Dieux</tspan></text><text class="cls-8" transform="translate(47.96 167.69)">Le sec<tspan class="cls-6" x="80.58" y="0">r</tspan><tspan class="cls-7" x="93.56" y="0">e</tspan><tspan x="107.56" y="0">t des Dieux</tspan></text><line class="cls-9" x1="88.11" y1="137.8" x2="159.69" y2="137.8"/><line class="cls-10" x1="192.6" y1="137.8" x2="280.35" y2="137.8"/><text class="cls-11" transform="translate(165.91 142.77)">e<tspan class="cls-12" x="11.2" y="0">t</tspan></text><line class="cls-13" x1="87.78" y1="137.04" x2="159.37" y2="137.04"/><line class="cls-13" x1="192.28" y1="137.04" x2="280.03" y2="137.04"/><text class="cls-14" transform="translate(165.59 142.02)">e<tspan class="cls-12" x="11.2" y="0">t</tspan></text></g></g></svg>