<svg xmlns="http://www.w3.org/2000/svg" viewBox="0 0 42.66 42.07"><defs><style>.cls-1{fill:#fff4e9;stroke:#b38349;}.cls-1,.cls-2{stroke-miterlimit:10;}.cls-2{fill:#b38349;stroke:#000;stroke-width:0.25px;}</style></defs><g id="Calque_2" data-name="Calque 2"><g id="Calque_1-2" data-name="Calque 1"><path class="cls-1" d="M42.16,21C41.69,48.42,1,48.41.5,21,1-6.35,41.7-6.34,42.16,21Z"/><path class="cls-2" d="M22.59,32c-3.68-2.16-6.13-4.55-9.71-6.88-.47-.21-4.31.52-4.2-.51V17.42c-.12-1,3.75-.32,4.2-.51,4.17-2.35,9.61-8.14,10.23-6.36C22.72,11.32,23.91,31.83,22.59,32ZM9.72,24.13c5.2-.77,8.24,4.08,12.35,6.41v-19C19.22,13.21,14.24,19,9.72,17.94Z"/><path class="cls-2" d="M30,21c5.11-4.7,4.22-5.5-.44-.44-4.7-5.1-5.5-4.22-.43.44-5.11,4.7-4.22,5.51.43.44C34.27,26.58,35.08,25.69,30,21Z"/></g></g></svg>