<svg xmlns="http://www.w3.org/2000/svg" viewBox="0 0 42.66 42.07"><defs><style>.cls-1{fill:#fff4e9;stroke:#b38349;}.cls-1,.cls-2{stroke-miterlimit:10;}.cls-2{fill:#b38349;stroke:#000;stroke-width:0.25px;}</style></defs><g id="Calque_2" data-name="Calque 2"><g id="Calque_1-2" data-name="Calque 1"><path class="cls-1" d="M42.16,21C41.69,48.42,1,48.41.5,21,1-6.35,41.7-6.34,42.16,21Z"/><path class="cls-2" d="M22.59,32c-3.68-2.16-6.13-4.55-9.71-6.88-.47-.21-4.31.52-4.2-.51V17.42c-.12-1,3.75-.32,4.2-.51,4.17-2.35,9.61-8.14,10.23-6.36C22.72,11.32,23.91,31.83,22.59,32ZM9.72,24.13c5.2-.77,8.24,4.08,12.35,6.41v-19C19.22,13.21,14.24,19,9.72,17.94Z"/><path class="cls-2" d="M25.76,22.59c-.46-.73,1-1.61,0-2.38-.48-.46.26-1.21.73-.74C27.53,20.18,27.29,23.18,25.76,22.59Z"/><path class="cls-2" d="M28.54,25.13c-1.67-.56,3.31-3.92-.36-7.31a.52.52,0,0,1,0-.73C31.29,17.35,31.26,23.86,28.54,25.13Z"/><path class="cls-2" d="M31,27.51a.51.51,0,0,1-.36-.88c4-3.65,2-8.34,0-11.92C35.1,16.13,35,25.06,31,27.51Z"/></g></g></svg>